# xmcd
#
# Track frame offsets: 
#        150
#        11028
#        20537
#        32278
#        43081
#        54400
#        67587
#        78462
#        90722
#        104112
#        117017
#        129611
#        138341
#        152470
#        165375
#        176635
#        187215
#        200519
#        212283
#        219947
#        231729
#        242081
#        254718
#        264063
#        271947
#
# Disc length: 3809 seconds
#
# Revision: 0
# Processed by: cddbd v1.5.2PL0 Copyright (c) Steve Scherf et al.
# Submitted via: ExactAudioCopyFreeDBPlugin 1.0
#
DISCID=580edf19
DTITLE=Paul Kuhn - Unser Mann am Klavier
DYEAR=2012
DGENRE=Blues
TTITLE0=Der Mann am Klavier
TTITLE1=Davon träumen alle kleinen Mädchen
TTITLE2=Living Doll
TTITLE3=Charming Boy
TTITLE4=Ich möcht' auf deiner Hochzeit tanzen
TTITLE5=Auf meinem Konto steht das Komma zu weit links
TTITLE6=Die Farbe der Liebe
TTITLE7=Die blauen Wildlederschuhe
TTITLE8=Amor, amor, amor
TTITLE9=Avignon (Heute läuten Glocken in Avignon)
TTITLE10=Old Mac Donald
TTITLE11=Das große Glück hat tausend kleine Fehler
TTITLE12=Einsamer Cowboy
TTITLE13=Lollo-Mambo
TTITLE14=Mitten in der Nacht
TTITLE15=Butterfly Doll
TTITLE16=Mutterlos
TTITLE17=Gigi hat's mir angetan
TTITLE18=Midnight, wenn alle schlafen
TTITLE19=Fräulein, pardon
TTITLE20=Sie heisst Mary
TTITLE21=Weil ich dich liebe
TTITLE22=Dies Lied ist für dich (A Handful Of Songs)
TTITLE23=Ich hab' in Winni-Winni-Peg 'ne Braut
TTITLE24=Tanzparty zu Haus Teil 1 (Potpourri)
EXTD=
EXTT0=
EXTT1=
EXTT2=
EXTT3=
EXTT4=
EXTT5=
EXTT6=
EXTT7=
EXTT8=
EXTT9=
EXTT10=
EXTT11=
EXTT12=
EXTT13=
EXTT14=
EXTT15=
EXTT16=
EXTT17=
EXTT18=
EXTT19=
EXTT20=
EXTT21=
EXTT22=
EXTT23=
EXTT24=
PLAYORDER=
